<svg xmlns="http://www.w3.org/2000/svg" version="1.1" xmlns:xlink="http://www.w3.org/1999/xlink" 
width="6000.7612359841165" height="6000" viewBox="0 0 500 100"><svg xml:space="preserve" width="500" height="159" 
data-version="2" data-id="lg_YfAvXwoAjlJHJebLiF" viewBox="0 0 565 159" x="0" y="0">

<rect width="100%" height="100%" fill="transparent"></rect>
<path fill="#f4f3f0" d="M325.435 154.815h-57.36v-14.29h19.5V22.145h-19.5V7.865h57.36v14.28h-19.5v118.38h19.5zm59.43 2.45q-13.37 0-23.63-7.04-10.25-7.04-15.97-20-5.71-12.96-5.71-30.62 0-17.65 5.76-30.56 5.77-12.91 15.97-19.9 10.21-6.99 23.58-6.99 10.82 0 21.43 5.41 10.61 5.4 16.02 18.26l-1.94.82V1.735h17.15v153.08h-16.13v-22.96l.51 1.63q-4.49 12.04-14.9 17.91-10.41 5.87-22.14 5.87m4.49-14.29q8.67 0 15.82-4.49 7.14-4.49 11.43-14.03 4.28-9.54 4.28-24.44 0-22.25-9.18-32.91-9.19-10.67-22.15-10.67-13.67 0-22.45 11.28-8.77 11.28-8.77 32.3 0 20.41 8.47 31.69 8.47 11.27 22.55 11.27m106.99 14.29q-11.03 0-19.14-4.24-8.11-4.23-12.5-11.58-4.39-7.35-4.39-16.63 0-9.9 5.82-18.27t18.01-13.42q12.2-5.05 31.28-5.05h18.37l-1.84 1.84v-6.02q0-13.27-5.3-20.36-5.31-7.1-17.76-7.1-11.74 0-18.06 6.08-6.33 6.07-6.74 16.27l-19.29-4.39q.92-8.87 6.79-16.17 5.87-7.3 15.71-11.69 9.85-4.38 22.81-4.38 13.37 0 21.79 5.05t12.4 14.54q3.98 9.49 3.98 22.86v50.31q0 3.37.97 4.49t4.13 1.12h6.23v14.29h-10.92q-6.94 0-11.64-4.34-4.69-4.33-4.69-10.97v-7.75h2.55q-1.63 4.28-4.69 8.72-3.06 4.44-7.76 8.27-4.69 3.83-11.17 6.17-6.48 2.35-14.95 2.35m3.87-14.29q8.47 0 15.72-4.18 7.25-4.19 11.68-13.11 4.44-8.93 4.44-23.22v-.92h-17.24q-13.58 0-21.38 3.57-7.81 3.57-11.07 8.83-3.27 5.25-3.27 10.46 0 5.2 2.35 9.39 2.34 4.18 7.04 6.68 4.69 2.5 11.73 2.5m-435.362 5.373a8.367 8.367 0 0 1-5.94-2.447L7.872 94.526a8.367 8.367 0 0 1 0-11.902l51.04-51.354a8.367 8.367 0 0 1 11.839 0 8.472 8.472 0 0 1 0 11.923L25.61 88.585l45.14 45.392a8.45 8.45 0 0 1-5.898 14.371m81.936 0a8.45 8.45 0 0 1-5.92-14.391l45.141-45.372-45.141-45.392a8.45 8.45 0 0 1 0-11.923 8.367 8.367 0 0 1 11.84 0l51.04 51.354a8.367 8.367 0 0 1 0 11.923l-51.04 51.333a8.367 8.367 0 0 1-5.92 2.468m-61.164 2.991q-1.527 0-3.013-.543a8.45 8.45 0 0 1-4.81-10.92l41.563-108.648a8.367 8.367 0 0 1 10.815-4.81 8.43 8.43 0 0 1 4.811 10.876L93.406 145.943a8.367 8.367 0 0 1-7.781 5.396">
</path></svg></svg>